<svg class="main Icon" xmlns:dc="http://purl.org/dc/elements/1.1/" xmlns:cc="http://creativecommons.org/ns#" xmlns:rdf="http://www.w3.org/1999/02/22-rdf-syntax-ns#" xmlns:svg="http://www.w3.org/2000/svg" xmlns="http://www.w3.org/2000/svg" width="15em" height="15em" viewBox="0 0 80 95" version="1.1" id="svg75953">
    <defs id="defs75947">
        <rect x="43.404571" y="213.28108" width="23.198995" height="15.715448" id="rect77062"/>
        <clipPath id="clipPath1003" clipPathUnits="userSpaceOnUse">
            <rect transform="matrix(0.8660254,0.5,0,1,0,0)" y="1.5600179e-05" x="-45.781628" height="211.25528" width="144.17957" id="rect1005" style="fill:#ffffff;stroke:#202020;stroke-width:1.12253;stroke-linecap:round;stroke-linejoin:round;paint-order:markers stroke fill"/>
        </clipPath>
        <clipPath id="clipPath1007" clipPathUnits="userSpaceOnUse">
            <rect y="1.5600179e-05" x="-39.648052" height="211.25528" width="124.86317" id="rect1009" style="fill:#ffffff;stroke:#202020;stroke-width:1.04463;stroke-linecap:round;stroke-linejoin:round;paint-order:markers stroke fill"/>
        </clipPath>
        <clipPath id="clipPath1011" clipPathUnits="userSpaceOnUse">
            <rect y="1.5600179e-05" x="-39.648052" height="211.25528" width="124.86317" id="rect1013" style="fill:#ffffff;stroke:#202020;stroke-width:1.04463;stroke-linecap:round;stroke-linejoin:round;paint-order:markers stroke fill"/>
        </clipPath>
        <clipPath id="clipPath1015" clipPathUnits="userSpaceOnUse">
            <rect y="1.5600179e-05" x="-39.648052" height="211.25528" width="124.86317" id="rect1017" style="fill:#ffffff;stroke:#202020;stroke-width:1.04463;stroke-linecap:round;stroke-linejoin:round;paint-order:markers stroke fill"/>
        </clipPath>
        <clipPath clipPathUnits="userSpaceOnUse" id="clipPath861">
            <rect style="fill:#ffffff;stroke:#202020;stroke-width:1.04463;stroke-linecap:round;stroke-linejoin:round;paint-order:markers stroke fill" id="rect863" width="117.00888" height="219.69759" x="85.215118" y="1.5600179e-05"/>
        </clipPath>
        <clipPath clipPathUnits="userSpaceOnUse" id="clipPath857">
            <rect style="fill:#ffffff;stroke:#202020;stroke-width:1.04463;stroke-linecap:round;stroke-linejoin:round;paint-order:markers stroke fill" id="rect859" width="117.00888" height="219.69759" x="85.215118" y="1.5600179e-05"/>
        </clipPath>
        <rect id="rect77062-6" height="15.715448" width="23.198996" y="213.28108" x="43.404572"/>
        <rect id="rect878" height="15.715448" width="23.198996" y="213.28108" x="43.404572"/>
        <clipPath clipPathUnits="userSpaceOnUse" id="clipPath853">
            <rect style="fill:#ffffff;stroke:#202020;stroke-width:1.04463;stroke-linecap:round;stroke-linejoin:round;paint-order:markers stroke fill" id="rect855" width="117.00888" height="219.69759" x="85.215118" y="1.5600179e-05"/>
        </clipPath>
        <clipPath clipPathUnits="userSpaceOnUse" id="clipPath849">
            <rect style="fill:#ffffff;stroke:#202020;stroke-width:1.12253;stroke-linecap:round;stroke-linejoin:round;paint-order:markers stroke fill" id="rect851" width="135.11021" height="219.69759" x="98.397942" y="1.5600179e-05" transform="matrix(0.8660254,0.5,0,1,0,0)"/>
        </clipPath>
        <clipPath id="clipPath861-7" clipPathUnits="userSpaceOnUse">
            <rect y="1.5600179e-05" x="85.215118" height="219.69759" width="117.00888" id="rect863-7" style="fill:#ffffff;stroke:#202020;stroke-width:1.04463;stroke-linecap:round;stroke-linejoin:round;paint-order:markers stroke fill"/>
        </clipPath>
        <clipPath id="clipPath857-4" clipPathUnits="userSpaceOnUse">
            <rect y="1.5600179e-05" x="85.215118" height="219.69759" width="117.00888" id="rect859-8" style="fill:#ffffff;stroke:#202020;stroke-width:1.04463;stroke-linecap:round;stroke-linejoin:round;paint-order:markers stroke fill"/>
        </clipPath>
        <rect x="43.404572" y="213.28108" width="23.198996" height="15.715448" id="rect77062-6-5"/>
        <rect x="43.404572" y="213.28108" width="23.198996" height="15.715448" id="rect1096"/>
        <clipPath id="clipPath853-2" clipPathUnits="userSpaceOnUse">
            <rect y="1.5600179e-05" x="85.215118" height="219.69759" width="117.00888" id="rect855-6" style="fill:#ffffff;stroke:#202020;stroke-width:1.04463;stroke-linecap:round;stroke-linejoin:round;paint-order:markers stroke fill"/>
        </clipPath>
        <clipPath id="clipPath849-6" clipPathUnits="userSpaceOnUse">
            <rect transform="matrix(0.8660254,0.5,0,1,0,0)" y="1.5600179e-05" x="98.397942" height="219.69759" width="135.11021" id="rect851-0" style="fill:#ffffff;stroke:#202020;stroke-width:1.12253;stroke-linecap:round;stroke-linejoin:round;paint-order:markers stroke fill"/>
        </clipPath>
    </defs>

    <g id="layer5" style="display:inline" transform="matrix(1,-0.6,0,1,39.5,0)">
        <g id="logoSkewLeft" class="logoSkewLeft"  style="display:inline" >
            <g id="layer6" style="display:inline" transform="matrix(1,0,0,1,-39.5,0)">
                <g id="layer1" style="display:inline" transform="matrix(0.46573393,0.26889161,0,0.46573393,-6.8217847e-5,-22.913636)">
                    <text clip-path="url(#clipPath1007)" xml:space="preserve" id="text77060" style="font-style:normal;font-weight:normal;font-size:10.5833px;line-height:1.25;font-family:sans-serif;white-space:pre;shape-inside:url(#rect77062);fill:#000000;fill-opacity:1;stroke:none;"/>
                    <g id="g1080">
                        <path d="M 85.215112,1e-5 1.5e-4,49.199074 v 98.398136 l 85.214962,49.19906 m 0,0 V 1e-5 196.79627 L 170.43058,147.59721 V 49.199074 L 85.215112,1e-5 m 0,98.398126 L 59.45131,113.2732 V 83.523075 L 33.687005,98.398136 V 128.14826 L 7.9226745,143.02332 V 68.648015 L 33.687005,53.772955 v 29.75012 L 59.45131,68.648015 V 38.898411 l 25.763802,-14.87506 m 51.528638,29.749604 v 29.75012 l -25.76431,-14.87506 z m 0,44.625181 v 29.750124 l -25.76431,14.87506 V 113.2732 Z" style="display:inline;fill:#202020;fill-opacity:1;stroke:none;stroke-width:0.517964px;stroke-linecap:butt;stroke-linejoin:miter;stroke-opacity:1" id="path76540-4-1-9-0-8" clip-path="url(#clipPath1015)"/>
                        <path id="path76540-4-1-9-04" style="display:inline;fill:#808080;fill-opacity:1;stroke:none;stroke-width:0.517964px;stroke-linecap:butt;stroke-linejoin:miter;stroke-opacity:1" d="m 59.450961,143.0232 -25.76425,-14.875 25.76425,-14.875 z m -25.76425,-44.625004 25.76425,14.875004 -25.76425,14.875 z m 0,-44.625002 25.76425,14.875 -25.76425,14.875 z m 103.056979,0 25.76424,14.875 V 143.0232 l -25.76424,-14.875 z m -25.76425,14.875 25.76425,14.875 V 98.398196 L 110.97944,83.523194 Z m -25.764239,-44.625 25.764239,14.875 V 113.2732 L 85.215201,98.398196 Z" clip-path="url(#clipPath1011)"/>
                        <text transform="skewY(-30)" id="text77068" y="62.828415" x="5.5889101" style="font-style:normal;font-weight:normal;font-size:6.99484px;line-height:1.25;font-family:sans-serif;fill:#000000;fill-opacity:1;stroke:none;stroke-width:0.174872" xml:space="preserve" clip-path="url(#clipPath1003)"><tspan style="stroke-width:0.174872" y="62.828415" x="5.5889101" id="tspan77066"><tspan id="tspan77070" style="fill:#1ed31e;fill-opacity:1;stroke-width:0.174872">Hannes@Hat</tspan><tspan id="tspan77158" style="fill:#f5f5f5;fill-opacity:1;stroke-width:0.174872">:<tspan id="tspan77160" style="fill:#45aae4;fill-opacity:1;stroke-width:0.174872">/dev</tspan>$ ./</tspan></tspan><tspan id="tspan77242" style="stroke-width:0.174872" y="71.571968" x="5.5889101"/></text>
                    </g>
                </g>

            </g>
        </g>
    </g>
    <g id="layer4"  style="display:inline" transform="matrix(1,0.6,0,1,39.5,0)">
        <g id="logoSkewRight" class="logoSkewRight"  style="display:inline ; transform:skewY(30);" >
            <g style="display:inline" id="g1070" transform="matrix(0.46573121,-0.26889004,0,0.46573121,-72.175758,86.815987)">
                <path d="M 85.215112,1e-5 1.5e-4,49.199074 v 98.398136 l 85.214962,49.19906 m 0,0 V 1e-5 196.79627 L 170.43058,147.59721 V 49.199074 L 85.215112,1e-5 m 0,98.398126 L 59.45131,113.2732 V 83.523075 L 33.687005,98.398136 V 128.14826 L 7.9226745,143.02332 V 68.648015 L 33.687005,53.772955 v 29.75012 L 59.45131,68.648015 V 38.898411 l 25.763802,-14.87506 m 51.528638,29.749604 v 29.75012 l -25.76431,-14.87506 z m 0,44.625181 v 29.750124 l -25.76431,14.87506 V 113.2732 Z" style="display:inline;fill:#202020;fill-opacity:1;stroke:none;stroke-width:0.517964px;stroke-linecap:butt;stroke-linejoin:miter;stroke-opacity:1" id="path76540-4-1-9-0-8-6" clip-path="url(#clipPath861-7)" transform="translate(69.757871,-96.93413)"/>
                <path id="path76540-4-1-9-04-7" style="display:inline;fill:#808080;fill-opacity:1;stroke:none;stroke-width:0.517964px;stroke-linecap:butt;stroke-linejoin:miter;stroke-opacity:1" d="m 59.450961,143.0232 -25.76425,-14.875 25.76425,-14.875 z m -25.76425,-44.625004 25.76425,14.875004 -25.76425,14.875 z m 0,-44.625002 25.76425,14.875 -25.76425,14.875 z m 103.056979,0 25.76424,14.875 V 143.0232 l -25.76424,-14.875 z m -25.76425,14.875 25.76425,14.875 V 98.398196 L 110.97944,83.523194 Z m -25.764239,-44.625 25.764239,14.875 V 113.2732 L 85.215201,98.398196 Z" clip-path="url(#clipPath857-4)" transform="translate(69.757871,-96.93413)"/>
                <text style="font-style:normal;font-weight:normal;font-size:10.5833px;line-height:1.25;font-family:sans-serif;white-space:pre;shape-inside:url(#rect77062-6-5);display:inline;fill:#000000;fill-opacity:1;stroke:none;" id="text77060-6" xml:space="preserve" clip-path="url(#clipPath853-2)" transform="translate(69.757871,-96.93413)"/>
                <text transform="matrix(0.99999997,-0.57735026,0,0.99999997,69.757871,-96.93413)" id="text77068-6" y="62.828415" x="5.5889101" style="font-style:normal;font-weight:normal;font-size:6.99484px;line-height:1.25;font-family:sans-serif;display:inline;fill:#000000;fill-opacity:1;stroke:none;stroke-width:0.174872" xml:space="preserve" clip-path="url(#clipPath849-6)"><tspan style="stroke-width:0.174872" y="62.828415" x="5.5889101" id="tspan77066-3"><tspan id="tspan77070-4" style="fill:#1ed31e;fill-opacity:1;stroke-width:0.174872">Hannes@Hat</tspan><tspan id="tspan77158-3" style="fill:#f5f5f5;fill-opacity:1;stroke-width:0.174872">:<tspan id="tspan77160-3" style="fill:#45aae4;fill-opacity:1;stroke-width:0.174872">/dev</tspan>$ ./</tspan></tspan><tspan id="tspan77242-0" style="stroke-width:0.174872" y="71.571968" x="5.5889101"/></text>
            </g>
        </g>
    </g>
</svg>