<svg id="visual" viewBox="0 0 900 900" width="900" height="900" xmlns="http://www.w3.org/2000/svg"
    xmlns:xlink="http://www.w3.org/1999/xlink" version="1.1">
    <g transform="translate(500.6967585548184 418.6032663874845)">
        <path
            d="M184.6 -271.7C220.2 -228.1 217.1 -148.8 217.8 -85.3C218.4 -21.7 222.9 26.1 218.9 81.3C215 136.6 202.7 199.4 164.8 262.1C127 324.7 63.5 387.4 7.6 376.9C-48.2 366.3 -96.4 282.7 -145.9 223.7C-195.3 164.8 -246 130.6 -280.9 78.3C-315.8 26 -334.8 -44.5 -312 -97.2C-289.2 -150 -224.5 -185 -165.6 -221C-106.6 -257 -53.3 -294 10.6 -308.6C74.5 -323.1 148.9 -315.3 184.6 -271.7"
            fill="#ffffff"></path>
    </g>
</svg>