<svg id="visual" viewBox="0 0 900 900" width="900" height="900" xmlns="http://www.w3.org/2000/svg"
    xmlns:xlink="http://www.w3.org/1999/xlink" version="1.1">
    <g transform="translate(379.5204179220487 498.53611512515874)">
        <path
            d="M239.1 -318.6C301.9 -283.5 339.2 -202.9 359 -121.5C378.8 -40.1 381.1 42.2 348.2 103.8C315.3 165.3 247.3 206 183.4 226.3C119.5 246.5 59.8 246.3 1.4 244.4C-57 242.5 -114 238.9 -155.6 211.4C-197.1 183.9 -223.1 132.4 -230.3 81.6C-237.5 30.8 -225.7 -19.4 -217.4 -78.6C-209.1 -137.8 -204.2 -206 -168.5 -249.9C-132.8 -293.8 -66.4 -313.4 10.9 -328.4C88.2 -343.4 176.3 -353.7 239.1 -318.6"
            fill="#ffffff"></path>
    </g>
</svg>