<svg id="visual" viewBox="0 0 900 900" width="900" height="900" xmlns="http://www.w3.org/2000/svg"
    xmlns:xlink="http://www.w3.org/1999/xlink" version="1.1">
    <g transform="translate(409.56168290374796 456.9354979277636)">
        <path
            d="M187.1 -228.1C257 -206.7 338.2 -171.5 359 -114.9C379.8 -58.3 340.2 19.7 310.2 97.4C280.3 175.1 260.1 252.6 210 283.2C159.9 313.7 79.9 297.4 17.9 272.7C-44.1 248 -88.2 215 -132.7 182.7C-177.3 150.3 -222.3 118.6 -249 72.4C-275.8 26.2 -284.4 -34.5 -283.9 -109.7C-283.5 -184.8 -274 -274.4 -225.2 -302.7C-176.3 -331 -88.2 -298 -14.8 -277.7C58.6 -257.3 117.2 -249.6 187.1 -228.1"
            fill="#ffffff"></path>
    </g>
</svg>