<svg id="visual" viewBox="0 0 900 900" width="900" height="900" xmlns="http://www.w3.org/2000/svg"
    xmlns:xlink="http://www.w3.org/1999/xlink" version="1.1">
    <g transform="translate(400.9610228704224 481.60802090287353)">
        <path
            d="M162.4 -221.8C232.3 -172.7 325.8 -154.5 366.9 -101.8C408 -49.1 396.6 38 369.8 120C343 202.1 300.8 279 236.6 310.7C172.4 342.3 86.2 328.7 17.8 304.1C-50.5 279.6 -101.1 244.2 -159.4 210.6C-217.8 177.1 -283.9 145.4 -294.3 99C-304.7 52.6 -259.3 -8.4 -245.1 -88.1C-230.8 -167.7 -247.7 -265.9 -212 -326.1C-176.3 -386.4 -88.2 -408.7 -21 -379.8C46.2 -351 92.5 -271 162.4 -221.8"
            fill="#ffffff"></path>
    </g>
</svg>